<svg width="35" height="50" viewBox="0 0 35 50" fill="none" xmlns="http://www.w3.org/2000/svg">
<path fill-rule="evenodd" clip-rule="evenodd" d="M25.3314 24.6529C25.2881 24.9311 25.1826 25.1959 25.0227 25.4275C24.8629 25.659 24.6529 25.8512 24.4084 25.9898C23.9161 26.3086 23.4854 26.468 23.0495 26.6274C22.1214 26.9488 21.1446 27.2702 20.1113 27.643C19.0217 28.0157 18.0448 28.3885 17.1731 28.6585C16.086 29.0313 15.0528 29.3526 14.0708 29.7254C13.332 30.0425 12.6381 30.4556 12.0069 30.9544C11.4198 31.4877 10.9075 32.0983 10.4839 32.7695C10.0481 33.515 9.77372 34.4766 9.77372 35.5975C9.77372 37.842 10.3173 39.5491 11.4069 40.6161C12.494 41.7396 14.5092 42.2718 17.4962 42.2718C20.5421 42.2718 22.6086 41.6856 23.7008 40.5107C24.7853 39.3357 25.3288 37.6826 25.3288 35.5487V24.6529H25.3314ZM17.4987 1C22.8316 1 26.7467 2.01553 29.2465 4.09802C31.7488 6.12908 33 8.74119 33 11.8366V38.2148C33 39.2817 32.7846 40.4567 32.4052 41.737C32.0206 43.0225 31.2617 44.1949 30.0643 45.2592C28.9234 46.3313 27.3466 47.2389 25.334 47.933C23.3213 48.6272 20.7113 49 17.5013 49C14.2964 49 11.6813 48.6272 9.67116 47.933C7.66107 47.2389 6.08171 46.3313 4.94078 45.2592C3.87941 44.3001 3.07537 43.089 2.60251 41.737C2.21793 40.4592 2 39.2843 2 38.2174V34.001C2 31.7565 2.59739 29.674 3.79472 27.8563C4.99206 25.9898 6.67654 24.7095 8.85328 23.9073C9.94037 23.5345 11.1915 23.1618 12.6043 22.681C14.0195 22.1976 15.322 21.7169 16.6296 21.2927C17.9371 20.8633 19.0781 20.434 20.0549 20.0586C20.6444 19.8221 21.2431 19.6094 21.8496 19.421L22.829 18.9402C23.2136 18.7268 23.5905 18.4055 23.9725 17.9787C24.352 17.5545 24.6776 17.0737 24.9519 16.5389C25.2418 15.9599 25.3911 15.3203 25.3878 14.6724V12.9627C25.3918 12.3361 25.2606 11.716 25.0032 11.145C24.7879 10.5023 24.352 9.91612 23.7546 9.38393C23.1572 8.84917 22.3393 8.42239 21.3625 8.09845C20.3831 7.78222 19.0806 7.62025 17.609 7.62025C14.5631 7.62025 12.5504 8.21157 11.4633 9.43535C10.5403 10.5049 9.99677 11.8392 9.88909 13.3329C9.88909 13.6543 9.61732 13.8677 9.28914 13.8677L2.65636 13.9757C2.4988 13.9764 2.34735 13.9146 2.23498 13.8039C2.12262 13.6931 2.05843 13.5423 2.05641 13.3844V11.8418C2.05641 10.3429 2.33074 8.95458 2.92813 7.62025C3.52808 6.28334 4.45364 5.16497 5.70226 4.20086C6.95344 3.24189 8.58663 2.44231 10.5429 1.90755C12.4479 1.26481 14.7861 1 17.5038 1H17.4987Z" fill="#00635D"/>
</svg>
